<svg width="32" height="32" viewBox="0 0 32 32" fill="none" xmlns="http://www.w3.org/2000/svg">
<rect width="32" height="32" rx="6" fill="#0B1118"/>
<path d="M11.9006 8.45455H15.4091V17.8366C15.4091 18.9209 15.151 19.8655 14.6349 20.6705C14.1188 21.4706 13.3991 22.0909 12.4759 22.5312C11.5526 22.9669 10.4801 23.1847 9.25852 23.1847C8.02273 23.1847 6.94318 22.9669 6.01989 22.5312C5.09659 22.0909 4.37926 21.4706 3.8679 20.6705C3.35653 19.8655 3.10085 18.9209 3.10085 17.8366V8.45455H6.61648V17.5312C6.61648 18.0331 6.72538 18.4806 6.94318 18.8736C7.16572 19.2666 7.47585 19.5743 7.87358 19.7969C8.27131 20.0194 8.73295 20.1307 9.25852 20.1307C9.78409 20.1307 10.2434 20.0194 10.6364 19.7969C11.0341 19.5743 11.3442 19.2666 11.5668 18.8736C11.7893 18.4806 11.9006 18.0331 11.9006 17.5312V8.45455Z" fill="white"/>
<path d="M20.6246 8.45455L23.2809 13.0497H23.3945L26.0792 8.45455H30.0138L25.6246 15.7273L30.1559 23H26.1218L23.3945 18.3551H23.2809L20.5536 23H16.5479L21.0578 15.7273L16.6615 8.45455H20.6246Z" fill="#D14D23"/>
</svg>
